<svg clip-rule="evenodd" fill-rule="evenodd" stroke-linecap="round" stroke-linejoin="round" stroke-miterlimit="1.5" viewBox="0 0 1800 600" xmlns="http://www.w3.org/2000/svg"><g fill="none" stroke="#fff"><g stroke-width="12.5" transform="translate(140.421 32.8109)"><path d="m435.408 512.28s-12.32-109.858-12.32-133.96c0-5.428 15.68-6.385 12.32-10.648-3.644-4.623-36.742-4.612-34.182-17.091 3.987-19.435 58.107-99.52 58.107-99.52"/><path d="m459.333 350.581s.956-14.735 10.455-22.802c10.98-9.325 59.639-27.779 59.639-27.779"/><path d="m517.375 338.177s52.359-29.565 81.006-38.177"/><path d="m598.381 338.177s56.163-40.979 84.244-38.177"/><path d="m693.08 338.177s32.117-27.855 58.499-19.089"/><path d="m704.671 512.28v-130.609"/><path d="m504.411 400.48c8.876 0 18.79-10.65 28.042-12.196 35.185-5.881 67.149-18.703 103.11-8.699 5.401 1.502 10.875 9.649 12.181 14.343 1.019 3.664 4.273 8.248 5.942 11.586 6.213 12.426-15.87 31.076-21.495 42.176-4.16 8.208-26.293 10.443-34.301 11.849-30.317 5.321-58.565 35.601-92.363 26.142-27.474-7.688-29.808-31.722-29.808-58.34 0-9.189-1.475-24.767 8.511-29.827 12.614-6.392 34.481-16.687 49.75-12.439 4.9 1.363 7.62 8.263 11.14 8.263"/><path d="m513.447 448.901c.475 0-.83-15.374.164-17.389 5.945-12.051 18.463-28.584 34.4-32.034 14.607-3.163 30.769-1.338 45.088-4.955 24.387-6.16 56.113-4.139 56.113 25.418 0 3.28 1.878 14.494-.372 16.714-5.343 5.273-9.57 3.637-17.121 5.515-7.364 1.832-13.275 8.994-20.686 10.837-27.623 6.87-57.534 17.88-85.697 9.999-11.467-3.209-6.042-11.844-11.085-16.888"/><path d="m574.034 427.515c-3.363 0-20.448-2.389-22.417 0-7.894 9.575 8.622 23.176 17.175 23.176zm-4.92 23.176c7.522 0 9.006-3.868 8.61-8.408s-2.673-9.752-2.673-12.437z"/></g><path d="m76.46 561.219 29.887-441.351h659.277v459.368z" stroke-width="9.57" transform="matrix(1.42081 0 0 1.17933 301.779 -112.235)"/><g stroke-width="12.5" transform="translate(367.956 -16.1279)"><path d="m433.56 156.469c0-2.633 6.815-12.452 8.999-14.671 8.078-8.208 24.289-12.71 38.107-14.243 12.857-1.428 58.428 16.786 62.496 20.854"/><path d="m490.117 147.735c-2.212 0-12.84 54.563-7.061 77.154"/><path d="m546.636 216.61c8.05 0 20.561-11.448 24.61-17.581 10.877-16.476-10.433-15.778-21.164-13.248-11.819 2.786-12.82 28.251-11.102 30.829 8.267 12.4 26.868 11.13 41.113 11.13 3.015 0 16.553-2.75 16.553-4.756"/><path d="m625.466 187.564c4.765 4.765 5.775 13.243 12.427 17.398 17.13 10.701 14.759 9.025 22.124 13.218 5.138 2.927 30.755 17.706 30.755 17" transform="translate(-6.14602 -7.42784)"/><path d="m625.397 224.852c0 1.887 8.769-18.185 10.02-22.22 2.49-8.033 19.777-29.936 26.989-29.936"/><path d="m738.006 131.68c-5.123 5.043-7.863 62.607-.51 77.314 1.476 2.951 9.253 12.183 15.362 14.326"/><path d="m716.231 193.368c20.144 0 40.583-5.873 60.965-5.873"/></g></g></svg>