<?xml version="1.0" encoding="UTF-8" standalone="no"?>
<!DOCTYPE svg PUBLIC "-//W3C//DTD SVG 1.1//EN" "http://www.w3.org/Graphics/SVG/1.1/DTD/svg11.dtd">
<svg width="100%" height="100%" viewBox="0 0 1800 600" version="1.1" xmlns="http://www.w3.org/2000/svg" xmlns:xlink="http://www.w3.org/1999/xlink" xml:space="preserve" xmlns:serif="http://www.serif.com/" style="fill-rule:evenodd;clip-rule:evenodd;stroke-linecap:round;stroke-linejoin:round;stroke-miterlimit:1.5;">
    <g transform="matrix(1,0,0,1,27.9555,16.413)">
        <path d="M410.415,79.092L446.206,536.382" style="fill:none;stroke:white;stroke-width:12.5px;"/>
    </g>
    <g transform="matrix(1,0,0,1,3.64523,0.247846)">
        <path d="M383.734,99.932C383.734,99.932 441.276,74.579 471.976,69.55C522.121,61.334 613.451,50.638 684.609,50.638C777.34,50.638 944.024,69.55 1028.36,69.55C1082.82,69.55 1146.71,57.54 1190.64,50.638C1224.82,45.268 1291.96,28.134 1291.96,28.134C1291.96,28.134 1278.84,148.914 1268.36,234.156C1257.95,318.833 1259.09,434.668 1235.11,487.93C1217.5,527.048 1167.21,549.657 1124.5,553.725C983.61,567.147 389.761,568.463 389.761,568.463" style="fill:none;stroke:white;stroke-width:12.5px;"/>
    </g>
    <g>
        <g transform="matrix(1,0,0,1,140.421,32.8109)">
            <path d="M435.408,512.28C435.408,512.28 423.088,402.422 423.088,378.32C423.088,372.892 438.768,371.935 435.408,367.672C431.764,363.049 398.666,363.06 401.226,350.581C405.213,331.146 459.333,251.061 459.333,251.061" style="fill:none;stroke:white;stroke-width:12.5px;"/>
            <path d="M459.333,350.581C459.333,350.581 460.289,335.846 469.788,327.779C480.768,318.454 529.427,300 529.427,300" style="fill:none;stroke:white;stroke-width:12.5px;"/>
            <path d="M517.375,338.177C517.375,338.177 569.734,308.612 598.381,300" style="fill:none;stroke:white;stroke-width:12.5px;"/>
            <path d="M598.381,338.177C598.381,338.177 654.544,297.198 682.625,300" style="fill:none;stroke:white;stroke-width:12.5px;"/>
            <path d="M693.08,338.177C693.08,338.177 725.197,310.322 751.579,319.088" style="fill:none;stroke:white;stroke-width:12.5px;"/>
            <path d="M704.671,512.28L704.671,381.671" style="fill:none;stroke:white;stroke-width:12.5px;"/>
            <path d="M504.411,400.48C513.287,400.48 523.201,389.83 532.453,388.284C567.638,382.403 599.602,369.581 635.563,379.585C640.964,381.087 646.438,389.234 647.744,393.928C648.763,397.592 652.017,402.176 653.686,405.514C659.899,417.94 637.816,436.59 632.191,447.69C628.031,455.898 605.898,458.133 597.89,459.539C567.573,464.86 539.325,495.14 505.527,485.681C478.053,477.993 475.719,453.959 475.719,427.341C475.719,418.152 474.244,402.574 484.23,397.514C496.844,391.122 518.711,380.827 533.98,385.075C538.88,386.438 541.6,393.338 545.12,393.338" style="fill:none;stroke:white;stroke-width:12.5px;"/>
            <path d="M513.447,448.901C513.922,448.901 512.617,433.527 513.611,431.512C519.556,419.461 532.074,402.928 548.011,399.478C562.618,396.315 578.78,398.14 593.099,394.523C617.486,388.363 649.212,390.384 649.212,419.941C649.212,423.221 651.09,434.435 648.84,436.655C643.497,441.928 639.27,440.292 631.719,442.17C624.355,444.002 618.444,451.164 611.033,453.007C583.41,459.877 553.499,470.887 525.336,463.006C513.869,459.797 519.294,451.162 514.251,446.118" style="fill:none;stroke:white;stroke-width:12.5px;"/>
            <path d="M574.034,427.515C570.671,427.515 553.586,425.126 551.617,427.515C543.723,437.09 560.239,450.691 568.792,450.691L574.034,427.515ZM569.114,450.691C576.636,450.691 578.12,446.823 577.724,442.283C577.328,437.743 575.051,432.531 575.051,429.846L569.114,450.691Z" style="fill:none;stroke:white;stroke-width:12.5px;"/>
        </g>
        <g transform="matrix(1,0,0,1,367.956,-16.1279)">
            <path d="M433.56,156.469C433.56,153.836 440.375,144.017 442.559,141.798C450.637,133.59 466.848,129.088 480.666,127.555C493.523,126.127 539.094,144.341 543.162,148.409" style="fill:none;stroke:white;stroke-width:12.5px;"/>
            <path d="M490.117,147.735C487.905,147.735 477.277,202.298 483.056,224.889" style="fill:none;stroke:white;stroke-width:12.5px;"/>
            <path d="M546.636,216.61C554.686,216.61 567.197,205.162 571.246,199.029C582.123,182.553 560.813,183.251 550.082,185.781C538.263,188.567 537.262,214.032 538.98,216.61C547.247,229.01 565.848,227.74 580.093,227.74C583.108,227.74 596.646,224.99 596.646,222.984" style="fill:none;stroke:white;stroke-width:12.5px;"/>
            <g transform="matrix(1,0,0,1,-6.14602,-7.42784)">
                <path d="M625.466,187.564C630.231,192.329 631.241,200.807 637.893,204.962C655.023,215.663 652.652,213.987 660.017,218.18C665.155,221.107 690.772,235.886 690.772,235.18" style="fill:none;stroke:white;stroke-width:12.5px;"/>
            </g>
            <path d="M625.397,224.852C625.397,226.739 634.166,206.667 635.417,202.632C637.907,194.599 655.194,172.696 662.406,172.696" style="fill:none;stroke:white;stroke-width:12.5px;"/>
            <path d="M738.006,131.68C732.883,136.723 730.143,194.287 737.496,208.994C738.972,211.945 746.749,221.177 752.858,223.32" style="fill:none;stroke:white;stroke-width:12.5px;"/>
            <path d="M716.231,193.368C736.375,193.368 756.814,187.495 777.196,187.495" style="fill:none;stroke:white;stroke-width:12.5px;"/>
        </g>
    </g>
</svg>
