<?xml version="1.0" encoding="UTF-8" standalone="no"?><!DOCTYPE svg PUBLIC "-//W3C//DTD SVG 1.1//EN" "http://www.w3.org/Graphics/SVG/1.1/DTD/svg11.dtd"><svg width="100%" height="100%" viewBox="0 0 360 360" version="1.1" xmlns="http://www.w3.org/2000/svg" xmlns:xlink="http://www.w3.org/1999/xlink" xml:space="preserve" xmlns:serif="http://www.serif.com/" style="fill-rule:evenodd;clip-rule:evenodd;stroke-linejoin:round;stroke-miterlimit:2;"><g><circle cx="180" cy="180" r="180"/><g><g><path d="M147.435,32.565c81.372,-17.973 162.027,33.499 180,114.87c17.973,81.372 -33.499,162.027 -114.87,180c-81.372,17.973 -162.027,-33.499 -180,-114.87c-17.973,-81.372 33.499,-162.027 114.87,-180Z" style="fill:#fff;"/><clipPath id="_clip1"><path d="M147.435,32.565c81.372,-17.973 162.027,33.499 180,114.87c17.973,81.372 -33.499,162.027 -114.87,180c-81.372,17.973 -162.027,-33.499 -180,-114.87c-17.973,-81.372 33.499,-162.027 114.87,-180Z"/></clipPath><g clip-path="url(#_clip1)"><g id="completely-middled"><path d="M215.154,-17.472c84.731,-0.067 153.576,68.67 153.642,153.401c0.066,84.731 -68.671,153.575 -153.402,153.642c-84.73,0.066 -153.575,-68.671 -153.641,-153.402c-0.066,-84.731 68.671,-153.575 153.401,-153.641Z" style="fill:#1a1a1a;"/><path d="M215.234,84.175c28.63,-0.022 51.892,23.204 51.914,51.834c0.022,28.629 -23.203,51.891 -51.833,51.914c-28.63,0.022 -51.892,-23.203 -51.914,-51.833c-0.023,-28.63 23.203,-51.892 51.833,-51.915Z" style="fill:#fff;"/></g></g></g></g></g><g><circle cx="180" cy="180" r="180" style="fill:#e20e5a;"/><g><g><path d="M147.435,32.565c81.372,-17.973 162.027,33.499 180,114.87c17.973,81.372 -33.499,162.027 -114.87,180c-81.372,17.973 -162.027,-33.499 -180,-114.87c-17.973,-81.372 33.499,-162.027 114.87,-180Z" style="fill:#fff;"/><clipPath id="_clip2"><path d="M147.435,32.565c81.372,-17.973 162.027,33.499 180,114.87c17.973,81.372 -33.499,162.027 -114.87,180c-81.372,17.973 -162.027,-33.499 -180,-114.87c-17.973,-81.372 33.499,-162.027 114.87,-180Z"/></clipPath><g clip-path="url(#_clip2)"><g id="completely-middled1" serif:id="completely-middled"><path d="M215.154,-17.472c84.731,-0.067 153.576,68.67 153.642,153.401c0.066,84.731 -68.671,153.575 -153.402,153.642c-84.73,0.066 -153.575,-68.671 -153.641,-153.402c-0.066,-84.731 68.671,-153.575 153.401,-153.641Z" style="fill:#1a1a1a;"/><path d="M215.234,84.175c28.63,-0.022 51.892,23.204 51.914,51.834c0.022,28.629 -23.203,51.891 -51.833,51.914c-28.63,0.022 -51.892,-23.203 -51.914,-51.833c-0.023,-28.63 23.203,-51.892 51.833,-51.915Z" style="fill:#fff;"/></g></g></g></g></g></svg>